<svg width="14" height="14" viewBox="0 0 14 14" fill="none" xmlns="http://www.w3.org/2000/svg">
<path d="M6.74001 10.0451C4.83011 10.0451 3.27649 8.51544 3.27649 6.63591C3.27649 4.75639 4.83011 3.22589 6.74001 3.22589C8.64991 3.22589 10.2026 4.75551 10.2026 6.63591C10.2026 8.51631 8.64902 10.0451 6.74001 10.0451ZM6.74001 4.36111C5.46645 4.36111 4.42952 5.38115 4.42952 6.63591C4.42952 7.89068 5.46556 8.91072 6.74001 8.91072C8.01446 8.91072 9.0505 7.89068 9.0505 6.63591C9.0505 5.38115 8.01446 4.36111 6.74001 4.36111Z" fill="#1C3658"/>
<path d="M9.96072 13.2719H3.51847C1.57844 13.2719 0 11.7178 0 9.80774V3.46412C0 1.55406 1.57844 0 3.51847 0H9.96072C11.9008 0 13.4792 1.55406 13.4792 3.46412V9.80687C13.4792 11.7169 11.9008 13.271 9.96072 13.271V13.2719ZM3.51847 1.13522C2.21389 1.13522 1.15214 2.18056 1.15214 3.46499V9.80774C1.15214 11.0922 2.21389 12.1375 3.51847 12.1375H9.96072C11.2653 12.1375 12.327 11.0922 12.327 9.80774V3.46412C12.327 2.17969 11.2653 1.13435 9.96072 1.13435H3.51847V1.13522Z" fill="#1C3658"/>
<path d="M10.3001 3.85677C10.7397 3.85677 11.096 3.50595 11.096 3.0732C11.096 2.64044 10.7397 2.28963 10.3001 2.28963C9.86059 2.28963 9.50427 2.64044 9.50427 3.0732C9.50427 3.50595 9.86059 3.85677 10.3001 3.85677Z" fill="#1C3658"/>
</svg>
