<svg width="17" height="14" viewBox="0 0 17 14" fill="none" xmlns="http://www.w3.org/2000/svg">
<path d="M16.9548 1.75214C16.6056 2.23206 16.2219 2.66485 15.7778 3.06362C15.301 3.49031 15.3852 3.78175 15.3383 4.36463C15.2682 5.24156 15.0848 6.08883 14.7932 6.9204C14.2207 8.55473 13.1873 10.0058 11.8552 11.1245C8.66025 13.8059 3.73262 13.9202 0.227448 11.7824C2.80825 11.8906 3.96571 11.3679 5.30929 10.3898C3.95951 10.1987 2.74798 9.84265 2.08506 8.01897C2.73292 8.19349 3.19643 8.10884 3.59348 7.99977C2.34828 7.6106 0.885941 7.01638 0.885941 4.65869C1.41415 4.97107 2.12671 5.10544 2.4369 5.06269C0.759205 3.91438 0.622722 1.99646 1.3858 0.56631C2.46527 2.15178 6.45168 4.3751 8.26587 3.98331C8.06468 2.37952 8.9412 0.755659 10.556 0.21379C11.4671 -0.0907385 12.3702 -0.0697967 13.2671 0.275743C13.6162 0.411865 13.969 0.635244 14.2375 0.896143C14.2836 0.940645 14.3146 0.973803 14.3767 0.986891C14.4157 0.995617 14.4564 0.991254 14.4945 0.980783C15.122 0.806268 16.1049 0.381324 16.3796 0.227751C16.4877 0.167544 15.8239 1.72073 14.9173 2.09855C15.3241 2.0078 16.2848 1.7216 16.6783 1.55843C16.7554 1.52614 16.8449 1.50607 16.9078 1.52876C16.9982 1.55581 17.0372 1.64219 16.9548 1.75127V1.75214Z" fill="#1C3658"/>
</svg>
